<mxfile host="app.diagrams.net" modified="2022-02-17T00:10:05.576Z" agent="5.0 (Windows NT 10.0; Win64; x64) AppleWebKit/537.36 (KHTML, like Gecko) Chrome/96.0.4664.174 YaBrowser/22.1.3.848 Yowser/2.5 Safari/537.36" etag="3jts0I9EGJOFTRjqvfxq" version="16.5.6" type="github">
  <diagram id="DoWfOrL-Y5zpHEFt9f80" name="Page-1">
    <mxGraphModel dx="782" dy="432" grid="1" gridSize="10" guides="1" tooltips="1" connect="1" arrows="1" fold="1" page="1" pageScale="1" pageWidth="827" pageHeight="1169" math="0" shadow="0">
      <root>
        <mxCell id="0" />
        <mxCell id="1" parent="0" />
        <mxCell id="MGmDjisCyPKtVhScghq4-1" value="Начало" style="ellipse;whiteSpace=wrap;html=1;fontSize=16;" parent="1" vertex="1">
          <mxGeometry x="288" y="50" width="114" height="60" as="geometry" />
        </mxCell>
        <mxCell id="MGmDjisCyPKtVhScghq4-4" value="Вывести &quot;Приветствие по имени&lt;br&gt;&quot;" style="shape=parallelogram;perimeter=parallelogramPerimeter;whiteSpace=wrap;html=1;fixedSize=1;fontSize=12;" parent="1" vertex="1">
          <mxGeometry x="260" y="150" width="170" height="60" as="geometry" />
        </mxCell>
        <mxCell id="MGmDjisCyPKtVhScghq4-6" value="считать name" style="shape=parallelogram;perimeter=parallelogramPerimeter;whiteSpace=wrap;html=1;fixedSize=1;fontSize=12;" parent="1" vertex="1">
          <mxGeometry x="260" y="240" width="170" height="60" as="geometry" />
        </mxCell>
        <mxCell id="MGmDjisCyPKtVhScghq4-7" value="greetings&amp;nbsp;= &quot;Привет, &quot; + name" style="shape=parallelogram;perimeter=parallelogramPerimeter;whiteSpace=wrap;html=1;fixedSize=1;fontSize=12;" parent="1" vertex="1">
          <mxGeometry x="240" y="330" width="230" height="60" as="geometry" />
        </mxCell>
        <mxCell id="MGmDjisCyPKtVhScghq4-9" value="Вывести greetings" style="shape=parallelogram;perimeter=parallelogramPerimeter;whiteSpace=wrap;html=1;fixedSize=1;fontSize=12;" parent="1" vertex="1">
          <mxGeometry x="270" y="430" width="190" height="60" as="geometry" />
        </mxCell>
        <mxCell id="MGmDjisCyPKtVhScghq4-10" value="Конец" style="ellipse;whiteSpace=wrap;html=1;fontSize=12;" parent="1" vertex="1">
          <mxGeometry x="260" y="640" width="120" height="80" as="geometry" />
        </mxCell>
        <mxCell id="MGmDjisCyPKtVhScghq4-12" value="user != IsPremium" style="rhombus;whiteSpace=wrap;html=1;fontSize=12;" parent="1" vertex="1">
          <mxGeometry x="60" y="290" width="120" height="140" as="geometry" />
        </mxCell>
        <mxCell id="MGmDjisCyPKtVhScghq4-14" value="return ShowAds" style="rounded=0;whiteSpace=wrap;html=1;fontSize=12;" parent="1" vertex="1">
          <mxGeometry x="60" y="490" width="120" height="60" as="geometry" />
        </mxCell>
        <mxCell id="MGmDjisCyPKtVhScghq4-15" value="" style="endArrow=classic;html=1;rounded=0;fontSize=12;exitX=0.5;exitY=1;exitDx=0;exitDy=0;" parent="1" source="MGmDjisCyPKtVhScghq4-1" target="MGmDjisCyPKtVhScghq4-4" edge="1">
          <mxGeometry width="50" height="50" relative="1" as="geometry">
            <mxPoint x="390" y="520" as="sourcePoint" />
            <mxPoint x="440" y="470" as="targetPoint" />
          </mxGeometry>
        </mxCell>
        <mxCell id="MGmDjisCyPKtVhScghq4-16" value="" style="endArrow=classic;html=1;rounded=0;fontSize=12;exitX=0.5;exitY=1;exitDx=0;exitDy=0;entryX=0.5;entryY=0;entryDx=0;entryDy=0;" parent="1" source="MGmDjisCyPKtVhScghq4-4" target="MGmDjisCyPKtVhScghq4-6" edge="1">
          <mxGeometry width="50" height="50" relative="1" as="geometry">
            <mxPoint x="367" y="120" as="sourcePoint" />
            <mxPoint x="360.14285714285734" y="160" as="targetPoint" />
          </mxGeometry>
        </mxCell>
        <mxCell id="MGmDjisCyPKtVhScghq4-18" value="" style="endArrow=classic;html=1;rounded=0;fontSize=12;exitX=0.561;exitY=1.015;exitDx=0;exitDy=0;entryX=0.5;entryY=0;entryDx=0;entryDy=0;exitPerimeter=0;" parent="1" source="MGmDjisCyPKtVhScghq4-6" target="MGmDjisCyPKtVhScghq4-7" edge="1">
          <mxGeometry width="50" height="50" relative="1" as="geometry">
            <mxPoint x="387" y="140" as="sourcePoint" />
            <mxPoint x="380.14285714285734" y="180" as="targetPoint" />
          </mxGeometry>
        </mxCell>
        <mxCell id="MGmDjisCyPKtVhScghq4-19" value="" style="endArrow=classic;html=1;rounded=0;fontSize=12;exitX=0.5;exitY=1;exitDx=0;exitDy=0;entryX=0.449;entryY=-0.078;entryDx=0;entryDy=0;entryPerimeter=0;" parent="1" source="MGmDjisCyPKtVhScghq4-7" target="MGmDjisCyPKtVhScghq4-9" edge="1">
          <mxGeometry width="50" height="50" relative="1" as="geometry">
            <mxPoint x="397" y="150" as="sourcePoint" />
            <mxPoint x="390.14285714285734" y="190" as="targetPoint" />
          </mxGeometry>
        </mxCell>
        <mxCell id="MGmDjisCyPKtVhScghq4-20" value="" style="endArrow=classic;html=1;rounded=0;fontSize=12;exitX=0;exitY=0.5;exitDx=0;exitDy=0;entryX=1;entryY=0.5;entryDx=0;entryDy=0;" parent="1" source="MGmDjisCyPKtVhScghq4-7" target="MGmDjisCyPKtVhScghq4-12" edge="1">
          <mxGeometry width="50" height="50" relative="1" as="geometry">
            <mxPoint x="390" y="400" as="sourcePoint" />
            <mxPoint x="190" y="360" as="targetPoint" />
          </mxGeometry>
        </mxCell>
        <mxCell id="MGmDjisCyPKtVhScghq4-21" value="" style="endArrow=classic;html=1;rounded=0;fontSize=12;exitX=0.5;exitY=1;exitDx=0;exitDy=0;entryX=0.5;entryY=0;entryDx=0;entryDy=0;" parent="1" source="MGmDjisCyPKtVhScghq4-12" target="MGmDjisCyPKtVhScghq4-14" edge="1">
          <mxGeometry width="50" height="50" relative="1" as="geometry">
            <mxPoint x="390" y="520" as="sourcePoint" />
            <mxPoint x="440" y="470" as="targetPoint" />
          </mxGeometry>
        </mxCell>
        <mxCell id="MGmDjisCyPKtVhScghq4-22" value="" style="endArrow=none;html=1;rounded=0;fontSize=12;" parent="1" edge="1">
          <mxGeometry width="50" height="50" relative="1" as="geometry">
            <mxPoint x="120" y="600" as="sourcePoint" />
            <mxPoint x="360" y="600" as="targetPoint" />
          </mxGeometry>
        </mxCell>
        <mxCell id="MGmDjisCyPKtVhScghq4-23" value="" style="endArrow=none;html=1;rounded=0;fontSize=12;exitX=0.5;exitY=1;exitDx=0;exitDy=0;" parent="1" source="MGmDjisCyPKtVhScghq4-14" edge="1">
          <mxGeometry width="50" height="50" relative="1" as="geometry">
            <mxPoint x="390" y="630" as="sourcePoint" />
            <mxPoint x="120" y="600" as="targetPoint" />
          </mxGeometry>
        </mxCell>
        <mxCell id="MGmDjisCyPKtVhScghq4-24" value="" style="endArrow=none;html=1;rounded=0;fontSize=12;entryX=0.473;entryY=1.016;entryDx=0;entryDy=0;entryPerimeter=0;" parent="1" target="MGmDjisCyPKtVhScghq4-9" edge="1">
          <mxGeometry width="50" height="50" relative="1" as="geometry">
            <mxPoint x="360" y="600" as="sourcePoint" />
            <mxPoint x="440" y="580" as="targetPoint" />
          </mxGeometry>
        </mxCell>
        <mxCell id="MGmDjisCyPKtVhScghq4-25" value="" style="endArrow=classic;html=1;rounded=0;fontSize=12;" parent="1" edge="1">
          <mxGeometry width="50" height="50" relative="1" as="geometry">
            <mxPoint x="320" y="600" as="sourcePoint" />
            <mxPoint x="320" y="640" as="targetPoint" />
          </mxGeometry>
        </mxCell>
      </root>
    </mxGraphModel>
  </diagram>
</mxfile>
